{"scene":0,"scenes":[{"nodes":[0]}],"asset":{"version":"2.0","generator":"https://github.com/mikedh/trimesh"},"accessors":[{"componentType":5125,"type":"SCALAR","bufferView":0,"count":8496,"max":[1411],"min":[0]},{"componentType":5126,"type":"VEC3","byteOffset":0,"bufferView":1,"count":1412,"max":[20.523557662963867,30.871009826660156,67.0037841796875],"min":[-17.15843391418457,-36.72283172607422,-0.7796783447265625]}],"meshes":[{"name":"cat.stl","extras":{"header":"Exported from Blender-3.4.1\u0000\u0000\u0000\u0000\u0000\u0000\u0000\u0000\u0000\u0000\u0000\u0000\u0000\u0000\u0000\u0000\u0000\u0000\u0000\u0000\u0000\u0000\u0000\u0000\u0000\u0000\u0000\u0000\u0000\u0000\u0000\u0000\u0000\u0000\u0000\u0000\u0000\u0000\u0000\u0000\u0000\u0000\u0000\u0000\u0000\u0000\u0000\u0000\u0000\u0000\u0000\u0000\u0000","processed":true},"primitives":[{"attributes":{"POSITION":1},"indices":0,"mode":4}]}],"nodes":[{"name":"world","children":[1]},{"name":"cat.stl","mesh":0}],"buffers":[{"uri":"gltf_buffer_0.bin","byteLength":33984},{"uri":"gltf_buffer_1.bin","byteLength":16944}],"bufferViews":[{"buffer":0,"byteOffset":0,"byteLength":33984},{"buffer":1,"byteOffset":0,"byteLength":16944}]}